<svg xmlns="http://www.w3.org/2000/svg" xmlns:xlink="http://www.w3.org/1999/xlink" width="500" zoomAndPan="magnify" viewBox="0 0 375 149.999998" height="200" preserveAspectRatio="xMidYMid meet" version="1.0"><defs><g/><clipPath id="ebeddb56c7"><path d="M 1 1.257812 L 27.9375 1.257812 L 27.9375 76.808594 L 1 76.808594 Z M 1 1.257812 " clip-rule="nonzero"/></clipPath><clipPath id="3971894cb4"><path d="M 2.816406 1.257812 L 26.121094 1.257812 C 26.601562 1.257812 27.066406 1.449219 27.40625 1.789062 C 27.746094 2.132812 27.9375 2.59375 27.9375 3.074219 L 27.9375 74.925781 C 27.9375 75.40625 27.746094 75.867188 27.40625 76.210938 C 27.066406 76.550781 26.601562 76.742188 26.121094 76.742188 L 2.816406 76.742188 C 2.332031 76.742188 1.871094 76.550781 1.53125 76.210938 C 1.191406 75.867188 1 75.40625 1 74.925781 L 1 3.074219 C 1 2.59375 1.191406 2.132812 1.53125 1.789062 C 1.871094 1.449219 2.332031 1.257812 2.816406 1.257812 Z M 2.816406 1.257812 " clip-rule="nonzero"/></clipPath><clipPath id="b69dc20042"><path d="M 0 0.257812 L 26.9375 0.257812 L 26.9375 75.800781 L 0 75.800781 Z M 0 0.257812 " clip-rule="nonzero"/></clipPath><clipPath id="c26c82eb27"><path d="M 1.816406 0.257812 L 25.121094 0.257812 C 25.601562 0.257812 26.066406 0.449219 26.40625 0.789062 C 26.746094 1.132812 26.9375 1.59375 26.9375 2.074219 L 26.9375 73.925781 C 26.9375 74.40625 26.746094 74.867188 26.40625 75.210938 C 26.066406 75.550781 25.601562 75.742188 25.121094 75.742188 L 1.816406 75.742188 C 1.332031 75.742188 0.871094 75.550781 0.53125 75.210938 C 0.191406 74.867188 0 74.40625 0 73.925781 L 0 2.074219 C 0 1.59375 0.191406 1.132812 0.53125 0.789062 C 0.871094 0.449219 1.332031 0.257812 1.816406 0.257812 Z M 1.816406 0.257812 " clip-rule="nonzero"/></clipPath><clipPath id="c632506900"><rect x="0" width="27" y="0" height="76"/></clipPath><clipPath id="bbe22c0af7"><path d="M 27.9375 1.179688 L 50.972656 1.179688 L 50.972656 76.675781 L 27.9375 76.675781 Z M 27.9375 1.179688 " clip-rule="nonzero"/></clipPath><clipPath id="b0619b24b3"><path d="M 29.75 1.179688 L 49.15625 1.179688 C 49.640625 1.179688 50.101562 1.371094 50.441406 1.710938 C 50.78125 2.050781 50.972656 2.511719 50.972656 2.992188 L 50.972656 74.847656 C 50.972656 75.328125 50.78125 75.789062 50.441406 76.128906 C 50.101562 76.46875 49.640625 76.660156 49.15625 76.660156 L 29.75 76.660156 C 29.269531 76.660156 28.808594 76.46875 28.46875 76.128906 C 28.128906 75.789062 27.9375 75.328125 27.9375 74.847656 L 27.9375 2.992188 C 27.9375 2.511719 28.128906 2.050781 28.46875 1.710938 C 28.808594 1.371094 29.269531 1.179688 29.75 1.179688 Z M 29.75 1.179688 " clip-rule="nonzero"/></clipPath><clipPath id="db165576f7"><path d="M 0.9375 0.179688 L 23.972656 0.179688 L 23.972656 75.675781 L 0.9375 75.675781 Z M 0.9375 0.179688 " clip-rule="nonzero"/></clipPath><clipPath id="aff55c7fbb"><path d="M 2.75 0.179688 L 22.15625 0.179688 C 22.640625 0.179688 23.101562 0.371094 23.441406 0.710938 C 23.78125 1.050781 23.972656 1.511719 23.972656 1.992188 L 23.972656 73.847656 C 23.972656 74.328125 23.78125 74.789062 23.441406 75.128906 C 23.101562 75.46875 22.640625 75.660156 22.15625 75.660156 L 2.75 75.660156 C 2.269531 75.660156 1.808594 75.46875 1.46875 75.128906 C 1.128906 74.789062 0.9375 74.328125 0.9375 73.847656 L 0.9375 1.992188 C 0.9375 1.511719 1.128906 1.050781 1.46875 0.710938 C 1.808594 0.371094 2.269531 0.179688 2.75 0.179688 Z M 2.75 0.179688 " clip-rule="nonzero"/></clipPath><clipPath id="88f958f9ce"><rect x="0" width="24" y="0" height="76"/></clipPath><clipPath id="aa65372eb1"><path d="M 49 0.238281 L 80 0.238281 L 80 78 L 49 78 Z M 49 0.238281 " clip-rule="nonzero"/></clipPath><clipPath id="5b0d975c97"><path d="M 49.632812 3.152344 L 68.660156 0.246094 L 80.0625 74.878906 L 61.03125 77.785156 Z M 49.632812 3.152344 " clip-rule="nonzero"/></clipPath><clipPath id="ab14aea16f"><path d="M 51.425781 2.878906 L 66.867188 0.519531 C 67.34375 0.449219 67.828125 0.566406 68.214844 0.851562 C 68.605469 1.136719 68.863281 1.566406 68.933594 2.039062 L 79.78125 73.050781 C 79.855469 73.527344 79.734375 74.011719 79.449219 74.398438 C 79.164062 74.785156 78.738281 75.046875 78.261719 75.117188 L 62.820312 77.476562 C 62.34375 77.550781 61.859375 77.429688 61.472656 77.144531 C 61.082031 76.859375 60.824219 76.433594 60.75 75.957031 L 49.90625 4.949219 C 49.832031 4.472656 49.953125 3.988281 50.238281 3.597656 C 50.523438 3.210938 50.949219 2.953125 51.425781 2.878906 Z M 51.425781 2.878906 " clip-rule="nonzero"/></clipPath><clipPath id="26db3c8f5c"><path d="M 0.601562 0.238281 L 31 0.238281 L 31 77.761719 L 0.601562 77.761719 Z M 0.601562 0.238281 " clip-rule="nonzero"/></clipPath><clipPath id="2df95a8fd2"><path d="M 0.632812 3.152344 L 19.660156 0.246094 L 31.0625 74.878906 L 12.03125 77.785156 Z M 0.632812 3.152344 " clip-rule="nonzero"/></clipPath><clipPath id="64e8b98616"><path d="M 2.425781 2.878906 L 17.867188 0.519531 C 18.34375 0.449219 18.828125 0.566406 19.214844 0.851562 C 19.605469 1.136719 19.863281 1.566406 19.933594 2.039062 L 30.78125 73.050781 C 30.855469 73.527344 30.734375 74.011719 30.449219 74.398438 C 30.164062 74.785156 29.738281 75.046875 29.261719 75.117188 L 13.820312 77.476562 C 13.34375 77.550781 12.859375 77.429688 12.472656 77.144531 C 12.082031 76.859375 11.824219 76.433594 11.75 75.957031 L 0.90625 4.949219 C 0.832031 4.472656 0.953125 3.988281 1.238281 3.597656 C 1.523438 3.210938 1.949219 2.953125 2.425781 2.878906 Z M 2.425781 2.878906 " clip-rule="nonzero"/></clipPath><clipPath id="e833fe86b0"><rect x="0" width="31" y="0" height="78"/></clipPath><clipPath id="fe630e689b"><rect x="0" width="81" y="0" height="78"/></clipPath></defs><g transform="matrix(1, 0, 0, 1, 14, 36)"><g clip-path="url(#fe630e689b)"><g clip-path="url(#ebeddb56c7)"><g clip-path="url(#3971894cb4)"><g transform="matrix(1, 0, 0, 1, 1, 1)"><g clip-path="url(#c632506900)"><g clip-path="url(#b69dc20042)"><g clip-path="url(#c26c82eb27)"><path fill="#ef2346" d="M 0 0.257812 L 26.9375 0.257812 L 26.9375 75.703125 L 0 75.703125 Z M 0 0.257812 " fill-opacity="1" fill-rule="nonzero"/></g></g></g></g></g></g><g clip-path="url(#bbe22c0af7)"><g clip-path="url(#b0619b24b3)"><g transform="matrix(1, 0, 0, 1, 27, 1)"><g clip-path="url(#88f958f9ce)"><g clip-path="url(#db165576f7)"><g clip-path="url(#aff55c7fbb)"><path fill="#7073ee" d="M 0.9375 0.179688 L 23.972656 0.179688 L 23.972656 75.675781 L 0.9375 75.675781 Z M 0.9375 0.179688 " fill-opacity="1" fill-rule="nonzero"/></g></g></g></g></g></g><g clip-path="url(#aa65372eb1)"><g clip-path="url(#5b0d975c97)"><g clip-path="url(#ab14aea16f)"><g transform="matrix(1, 0, 0, 1, 49, -0.000000000000007105)"><g clip-path="url(#e833fe86b0)"><g clip-path="url(#26db3c8f5c)"><g clip-path="url(#2df95a8fd2)"><g clip-path="url(#64e8b98616)"><path fill="#faba26" d="M 0.632812 3.152344 L 19.660156 0.246094 L 31.0625 74.878906 L 12.03125 77.785156 Z M 0.632812 3.152344 " fill-opacity="1" fill-rule="nonzero"/></g></g></g></g></g></g></g></g></g></g><g fill="#23e8b6" fill-opacity="1"><g transform="translate(98.554891, 95.247067)"><g><path d="M 27.921875 -21.5 C 30.285156 -21.0625 32.226562 -19.878906 33.75 -17.953125 C 35.269531 -16.035156 36.03125 -13.835938 36.03125 -11.359375 C 36.03125 -9.109375 35.476562 -7.132812 34.375 -5.4375 C 33.28125 -3.738281 31.691406 -2.40625 29.609375 -1.4375 C 27.523438 -0.476562 25.0625 0 22.21875 0 L 4.140625 0 L 4.140625 -41.921875 L 21.4375 -41.921875 C 24.28125 -41.921875 26.734375 -41.457031 28.796875 -40.53125 C 30.859375 -39.613281 32.421875 -38.332031 33.484375 -36.6875 C 34.546875 -35.050781 35.078125 -33.191406 35.078125 -31.109375 C 35.078125 -28.671875 34.425781 -26.628906 33.125 -24.984375 C 31.820312 -23.335938 30.085938 -22.175781 27.921875 -21.5 Z M 12.546875 -24.625 L 20.234375 -24.625 C 22.242188 -24.625 23.785156 -25.070312 24.859375 -25.96875 C 25.941406 -26.875 26.484375 -28.164062 26.484375 -29.84375 C 26.484375 -31.53125 25.941406 -32.832031 24.859375 -33.75 C 23.785156 -34.675781 22.242188 -35.140625 20.234375 -35.140625 L 12.546875 -35.140625 Z M 21.015625 -6.84375 C 23.054688 -6.84375 24.648438 -7.320312 25.796875 -8.28125 C 26.941406 -9.25 27.515625 -10.613281 27.515625 -12.375 C 27.515625 -14.175781 26.910156 -15.585938 25.703125 -16.609375 C 24.503906 -17.628906 22.882812 -18.140625 20.84375 -18.140625 L 12.546875 -18.140625 L 12.546875 -6.84375 Z M 21.015625 -6.84375 "/></g></g></g><g fill="#23e8b6" fill-opacity="1"><g transform="translate(135.670791, 95.247067)"><g><path d="M 8.40625 -37.234375 C 6.925781 -37.234375 5.695312 -37.703125 4.71875 -38.640625 C 3.738281 -39.585938 3.25 -40.757812 3.25 -42.15625 C 3.25 -43.5625 3.738281 -44.734375 4.71875 -45.671875 C 5.695312 -46.617188 6.925781 -47.09375 8.40625 -47.09375 C 9.882812 -47.09375 11.113281 -46.617188 12.09375 -45.671875 C 13.082031 -44.734375 13.578125 -43.5625 13.578125 -42.15625 C 13.578125 -40.757812 13.082031 -39.585938 12.09375 -38.640625 C 11.113281 -37.703125 9.882812 -37.234375 8.40625 -37.234375 Z M 12.546875 -33.28125 L 12.546875 0 L 4.140625 0 L 4.140625 -33.28125 Z M 12.546875 -33.28125 "/></g></g></g><g fill="#23e8b6" fill-opacity="1"><g transform="translate(150.865305, 95.247067)"><g><path d="M 12.546875 -28.40625 C 13.628906 -30.007812 15.117188 -31.3125 17.015625 -32.3125 C 18.921875 -33.3125 21.097656 -33.8125 23.546875 -33.8125 C 26.390625 -33.8125 28.960938 -33.109375 31.265625 -31.703125 C 33.566406 -30.304688 35.382812 -28.316406 36.71875 -25.734375 C 38.0625 -23.148438 38.734375 -20.15625 38.734375 -16.75 C 38.734375 -13.351562 38.0625 -10.34375 36.71875 -7.71875 C 35.382812 -5.09375 33.566406 -3.054688 31.265625 -1.609375 C 28.960938 -0.171875 26.390625 0.546875 23.546875 0.546875 C 21.066406 0.546875 18.894531 0.0546875 17.03125 -0.921875 C 15.164062 -1.910156 13.671875 -3.1875 12.546875 -4.75 L 12.546875 0 L 4.140625 0 L 4.140625 -44.453125 L 12.546875 -44.453125 Z M 30.15625 -16.75 C 30.15625 -18.757812 29.742188 -20.492188 28.921875 -21.953125 C 28.097656 -23.410156 27.015625 -24.519531 25.671875 -25.28125 C 24.335938 -26.039062 22.890625 -26.421875 21.328125 -26.421875 C 19.804688 -26.421875 18.375 -26.03125 17.03125 -25.25 C 15.6875 -24.46875 14.601562 -23.335938 13.78125 -21.859375 C 12.957031 -20.378906 12.546875 -18.640625 12.546875 -16.640625 C 12.546875 -14.640625 12.957031 -12.894531 13.78125 -11.40625 C 14.601562 -9.925781 15.6875 -8.796875 17.03125 -8.015625 C 18.375 -7.234375 19.804688 -6.84375 21.328125 -6.84375 C 22.890625 -6.84375 24.335938 -7.242188 25.671875 -8.046875 C 27.015625 -8.847656 28.097656 -9.988281 28.921875 -11.46875 C 29.742188 -12.945312 30.15625 -14.707031 30.15625 -16.75 Z M 30.15625 -16.75 "/></g></g></g><g fill="#23e8b6" fill-opacity="1"><g transform="translate(190.083256, 95.247067)"><g><path d="M 12.546875 -44.453125 L 12.546875 0 L 4.140625 0 L 4.140625 -44.453125 Z M 12.546875 -44.453125 "/></g></g></g><g fill="#23e8b6" fill-opacity="1"><g transform="translate(205.277771, 95.247067)"><g><path d="M 8.40625 -37.234375 C 6.925781 -37.234375 5.695312 -37.703125 4.71875 -38.640625 C 3.738281 -39.585938 3.25 -40.757812 3.25 -42.15625 C 3.25 -43.5625 3.738281 -44.734375 4.71875 -45.671875 C 5.695312 -46.617188 6.925781 -47.09375 8.40625 -47.09375 C 9.882812 -47.09375 11.113281 -46.617188 12.09375 -45.671875 C 13.082031 -44.734375 13.578125 -43.5625 13.578125 -42.15625 C 13.578125 -40.757812 13.082031 -39.585938 12.09375 -38.640625 C 11.113281 -37.703125 9.882812 -37.234375 8.40625 -37.234375 Z M 12.546875 -33.28125 L 12.546875 0 L 4.140625 0 L 4.140625 -33.28125 Z M 12.546875 -33.28125 "/></g></g></g><g fill="#23e8b6" fill-opacity="1"><g transform="translate(220.472285, 95.247067)"><g><path d="M 18.921875 0.546875 C 15.710938 0.546875 12.828125 -0.160156 10.265625 -1.578125 C 7.703125 -3.003906 5.691406 -5.019531 4.234375 -7.625 C 2.773438 -10.226562 2.046875 -13.234375 2.046875 -16.640625 C 2.046875 -20.046875 2.796875 -23.046875 4.296875 -25.640625 C 5.796875 -28.242188 7.847656 -30.253906 10.453125 -31.671875 C 13.054688 -33.097656 15.957031 -33.8125 19.15625 -33.8125 C 22.363281 -33.8125 25.265625 -33.097656 27.859375 -31.671875 C 30.460938 -30.253906 32.515625 -28.242188 34.015625 -25.640625 C 35.523438 -23.046875 36.28125 -20.046875 36.28125 -16.640625 C 36.28125 -13.234375 35.507812 -10.226562 33.96875 -7.625 C 32.425781 -5.019531 30.34375 -3.003906 27.71875 -1.578125 C 25.09375 -0.160156 22.160156 0.546875 18.921875 0.546875 Z M 18.921875 -6.78125 C 20.441406 -6.78125 21.867188 -7.148438 23.203125 -7.890625 C 24.546875 -8.640625 25.617188 -9.753906 26.421875 -11.234375 C 27.222656 -12.710938 27.625 -14.515625 27.625 -16.640625 C 27.625 -19.796875 26.789062 -22.222656 25.125 -23.921875 C 23.46875 -25.628906 21.441406 -26.484375 19.046875 -26.484375 C 16.640625 -26.484375 14.625 -25.628906 13 -23.921875 C 11.382812 -22.222656 10.578125 -19.796875 10.578125 -16.640625 C 10.578125 -13.472656 11.363281 -11.035156 12.9375 -9.328125 C 14.519531 -7.628906 16.515625 -6.78125 18.921875 -6.78125 Z M 18.921875 -6.78125 "/></g></g></g><g fill="#23e8b6" fill-opacity="1"><g transform="translate(257.287892, 95.247067)"><g><path d="M 18.625 0.421875 C 15.695312 0.421875 13.0625 -0.078125 10.71875 -1.078125 C 8.375 -2.078125 6.519531 -3.519531 5.15625 -5.40625 C 3.800781 -7.289062 3.101562 -9.515625 3.0625 -12.078125 L 12.078125 -12.078125 C 12.191406 -10.347656 12.800781 -8.984375 13.90625 -7.984375 C 15.007812 -6.984375 16.519531 -6.484375 18.4375 -6.484375 C 20.394531 -6.484375 21.9375 -6.953125 23.0625 -7.890625 C 24.1875 -8.835938 24.75 -10.070312 24.75 -11.59375 C 24.75 -12.832031 24.367188 -13.851562 23.609375 -14.65625 C 22.847656 -15.457031 21.894531 -16.085938 20.75 -16.546875 C 19.613281 -17.003906 18.039062 -17.515625 16.03125 -18.078125 C 13.3125 -18.878906 11.097656 -19.671875 9.390625 -20.453125 C 7.691406 -21.234375 6.234375 -22.414062 5.015625 -24 C 3.796875 -25.582031 3.1875 -27.691406 3.1875 -30.328125 C 3.1875 -32.816406 3.804688 -34.976562 5.046875 -36.8125 C 6.285156 -38.65625 8.023438 -40.066406 10.265625 -41.046875 C 12.515625 -42.035156 15.078125 -42.53125 17.953125 -42.53125 C 22.285156 -42.53125 25.800781 -41.476562 28.5 -39.375 C 31.195312 -37.269531 32.6875 -34.335938 32.96875 -30.578125 L 23.71875 -30.578125 C 23.644531 -32.015625 23.035156 -33.203125 21.890625 -34.140625 C 20.753906 -35.085938 19.242188 -35.5625 17.359375 -35.5625 C 15.710938 -35.5625 14.398438 -35.140625 13.421875 -34.296875 C 12.441406 -33.453125 11.953125 -32.226562 11.953125 -30.625 C 11.953125 -29.507812 12.320312 -28.582031 13.0625 -27.84375 C 13.800781 -27.101562 14.722656 -26.5 15.828125 -26.03125 C 16.929688 -25.570312 18.484375 -25.046875 20.484375 -24.453125 C 23.203125 -23.648438 25.421875 -22.847656 27.140625 -22.046875 C 28.867188 -21.242188 30.351562 -20.039062 31.59375 -18.4375 C 32.832031 -16.832031 33.453125 -14.726562 33.453125 -12.125 C 33.453125 -9.882812 32.867188 -7.800781 31.703125 -5.875 C 30.546875 -3.957031 28.847656 -2.425781 26.609375 -1.28125 C 24.367188 -0.144531 21.707031 0.421875 18.625 0.421875 Z M 18.625 0.421875 "/></g></g></g><g fill="#23e8b6" fill-opacity="1"><g transform="translate(292.361811, 95.247067)"><g><path d="M 8.40625 -37.234375 C 6.925781 -37.234375 5.695312 -37.703125 4.71875 -38.640625 C 3.738281 -39.585938 3.25 -40.757812 3.25 -42.15625 C 3.25 -43.5625 3.738281 -44.734375 4.71875 -45.671875 C 5.695312 -46.617188 6.925781 -47.09375 8.40625 -47.09375 C 9.882812 -47.09375 11.113281 -46.617188 12.09375 -45.671875 C 13.082031 -44.734375 13.578125 -43.5625 13.578125 -42.15625 C 13.578125 -40.757812 13.082031 -39.585938 12.09375 -38.640625 C 11.113281 -37.703125 9.882812 -37.234375 8.40625 -37.234375 Z M 12.546875 -33.28125 L 12.546875 0 L 4.140625 0 L 4.140625 -33.28125 Z M 12.546875 -33.28125 "/></g></g></g><g fill="#23e8b6" fill-opacity="1"><g transform="translate(307.556314, 95.247067)"><g><path d="M 16.875 0.546875 C 14.15625 0.546875 11.710938 0.0546875 9.546875 -0.921875 C 7.390625 -1.910156 5.675781 -3.242188 4.40625 -4.921875 C 3.144531 -6.609375 2.457031 -8.472656 2.34375 -10.515625 L 10.8125 -10.515625 C 10.96875 -9.234375 11.597656 -8.171875 12.703125 -7.328125 C 13.804688 -6.484375 15.175781 -6.0625 16.8125 -6.0625 C 18.414062 -6.0625 19.664062 -6.378906 20.5625 -7.015625 C 21.46875 -7.660156 21.921875 -8.484375 21.921875 -9.484375 C 21.921875 -10.566406 21.367188 -11.378906 20.265625 -11.921875 C 19.171875 -12.460938 17.421875 -13.050781 15.015625 -13.6875 C 12.535156 -14.289062 10.503906 -14.910156 8.921875 -15.546875 C 7.335938 -16.191406 5.972656 -17.175781 4.828125 -18.5 C 3.691406 -19.820312 3.125 -21.601562 3.125 -23.84375 C 3.125 -25.6875 3.65625 -27.367188 4.71875 -28.890625 C 5.78125 -30.410156 7.300781 -31.609375 9.28125 -32.484375 C 11.257812 -33.367188 13.59375 -33.8125 16.28125 -33.8125 C 20.238281 -33.8125 23.398438 -32.820312 25.765625 -30.84375 C 28.128906 -28.863281 29.429688 -26.191406 29.671875 -22.828125 L 21.625 -22.828125 C 21.5 -24.148438 20.945312 -25.195312 19.96875 -25.96875 C 18.988281 -26.75 17.675781 -27.140625 16.03125 -27.140625 C 14.507812 -27.140625 13.335938 -26.859375 12.515625 -26.296875 C 11.703125 -25.742188 11.296875 -24.96875 11.296875 -23.96875 C 11.296875 -22.84375 11.851562 -21.988281 12.96875 -21.40625 C 14.09375 -20.832031 15.835938 -20.242188 18.203125 -19.640625 C 20.597656 -19.035156 22.578125 -18.410156 24.140625 -17.765625 C 25.703125 -17.128906 27.050781 -16.140625 28.1875 -14.796875 C 29.332031 -13.460938 29.925781 -11.691406 29.96875 -9.484375 C 29.96875 -7.566406 29.4375 -5.847656 28.375 -4.328125 C 27.3125 -2.804688 25.789062 -1.613281 23.8125 -0.75 C 21.832031 0.113281 19.519531 0.546875 16.875 0.546875 Z M 16.875 0.546875 "/></g></g></g></svg>